<svg width="1098" height="650" viewBox="0 0 1098 650" fill="none" xmlns="http://www.w3.org/2000/svg">
  <defs>
    <linearGradient id="bg" x1="0" y1="0" x2="1098" y2="650" gradientUnits="userSpaceOnUse">
      <stop offset="0" stop-color="#F9F5EB"/>
      <stop offset="0.5" stop-color="#F4F5F5"/>
      <stop offset="1" stop-color="#EAEFFA"/>
    </linearGradient>
    <linearGradient id="laptop" x1="136" y1="50" x2="960" y2="596" gradientUnits="userSpaceOnUse">
      <stop offset="0" stop-color="#3C4156"/>
      <stop offset="1" stop-color="#1F2333"/>
    </linearGradient>
    <filter id="shadow" x="104" y="36" width="892" height="568" filterUnits="userSpaceOnUse">
      <feDropShadow dx="0" dy="20" stdDeviation="22" flood-color="#1A1C2A" flood-opacity="0.18"/>
    </filter>
  </defs>

  <rect width="1098" height="650" fill="url(#bg)"/>
  <circle cx="188" cy="122" r="122" fill="#D7D6FF" opacity="0.34"/>
  <circle cx="912" cy="118" r="142" fill="#FFD7D2" opacity="0.26"/>
  <circle cx="864" cy="530" r="162" fill="#C9D3FF" opacity="0.22"/>
  <circle cx="226" cy="534" r="102" fill="#FFF0C1" opacity="0.26"/>

  <g filter="url(#shadow)">
    <rect x="138" y="48" width="822" height="528" rx="28" fill="url(#laptop)"/>
    <rect x="160" y="70" width="778" height="484" rx="16" fill="#F4F5F5"/>

    <rect x="160" y="70" width="778" height="80" rx="16" fill="#585C70"/>
    <circle cx="192" cy="110" r="7" fill="#E86A61"/>
    <circle cx="216" cy="110" r="7" fill="#F2BF5D"/>
    <circle cx="240" cy="110" r="7" fill="#86C17A"/>
    <rect x="264" y="92" width="170" height="36" rx="10" fill="#6A6E84" opacity="0.38"/>
    <text x="280" y="115" fill="#F4F5F5" font-family="Helvetica Neue, Arial, sans-serif" font-size="14" font-weight="700">Confidant</text>
    <rect x="690" y="94" width="166" height="28" rx="7" fill="#6A6E84" opacity="0.34"/>
    <text x="704" y="112" fill="#F4F5F5" font-family="Helvetica Neue, Arial, sans-serif" font-size="12" opacity="0.9">admin@confidant.local</text>
    <rect x="860" y="94" width="62" height="28" rx="7" fill="none" stroke="#F4F5F5" stroke-opacity="0.62"/>
    <text x="875" y="112" fill="#F4F5F5" font-family="Helvetica Neue, Arial, sans-serif" font-size="12" font-weight="700">Log Out</text>

    <rect x="160" y="150" width="220" height="404" rx="0" fill="#FFFFFF"/>
    <rect x="380" y="150" width="558" height="404" rx="0" fill="#F4F5F5"/>

    <rect x="172" y="176" width="196" height="36" rx="8" fill="#F2F0FF"/>
    <rect x="196" y="188" width="4" height="14" rx="2" fill="#3D40B8"/>
    <path d="M202 194.5C202 190.9 204.8 188 208.5 188C212.2 188 215 190.9 215 194.5V201H202V194.5Z" stroke="#3D40B8" stroke-width="2" stroke-linejoin="round"/>
    <rect x="226" y="190" width="60" height="4" rx="2" fill="#3D40B8"/>
    <rect x="226" y="198" width="46" height="4" rx="2" fill="#3D40B8" opacity="0.75"/>

    <rect x="172" y="218" width="196" height="36" rx="8" fill="#FFFFFF"/>
    <circle cx="208" cy="236" r="7" stroke="#4A4D65" stroke-width="2"/>
    <path d="M208 229V243M201 236H215" stroke="#4A4D65" stroke-width="2" stroke-linecap="round"/>
    <rect x="226" y="232" width="54" height="4" rx="2" fill="#1A1C2A" opacity="0.9"/>
    <rect x="226" y="240" width="38" height="4" rx="2" fill="#4A4D65" opacity="0.6"/>

    <text x="404" y="194" fill="#1A1C2A" font-family="Helvetica Neue, Arial, sans-serif" font-size="18" font-weight="700">Secrets</text>
    <rect x="810" y="176" width="106" height="32" rx="8" fill="#6BDFAB"/>
    <text x="835" y="197" fill="#424554" font-family="Helvetica Neue, Arial, sans-serif" font-size="13" font-weight="700">New Secret</text>

    <rect x="404" y="230" width="514" height="264" rx="10" fill="#FFFFFF" stroke="#D9DAE6"/>
    <text x="424" y="264" fill="#4A4D65" font-family="Helvetica Neue, Arial, sans-serif" font-size="12" font-weight="700">Name</text>
    <text x="570" y="264" fill="#4A4D65" font-family="Helvetica Neue, Arial, sans-serif" font-size="12" font-weight="700">ID</text>
    <text x="726" y="264" fill="#4A4D65" font-family="Helvetica Neue, Arial, sans-serif" font-size="12" font-weight="700">Revision</text>
    <text x="812" y="264" fill="#4A4D65" font-family="Helvetica Neue, Arial, sans-serif" font-size="12" font-weight="700">Modified</text>

    <rect x="418" y="282" width="486" height="46" rx="8" fill="#F7F8FC"/>
    <text x="424" y="310" fill="#3D40B8" font-family="Helvetica Neue, Arial, sans-serif" font-size="13" text-decoration="underline">api-key-prod</text>
    <text x="570" y="310" fill="#4A4D65" font-family="monospace" font-size="12">service/api/key</text>
    <text x="738" y="310" fill="#4A4D65" font-family="Helvetica Neue, Arial, sans-serif" font-size="13">42</text>
    <text x="812" y="310" fill="#4A4D65" font-family="Helvetica Neue, Arial, sans-serif" font-size="12">Apr 18, 2026</text>
    <rect x="856" y="291" width="28" height="28" rx="14" fill="#EDEFF7"/>
    <path d="M865 305L871 299L877 305L871 311L865 305Z" fill="#4A4D65"/>

    <rect x="418" y="334" width="486" height="46" rx="8" fill="#FFFFFF"/>
    <text x="424" y="362" fill="#4A4D65" font-family="Helvetica Neue, Arial, sans-serif" font-size="13">db-password</text>
    <text x="570" y="362" fill="#4A4D65" font-family="monospace" font-size="12">apps/api</text>
    <text x="738" y="362" fill="#4A4D65" font-family="Helvetica Neue, Arial, sans-serif" font-size="13">19</text>
    <text x="812" y="362" fill="#4A4D65" font-family="Helvetica Neue, Arial, sans-serif" font-size="12">Apr 17, 2026</text>
    <rect x="856" y="343" width="28" height="28" rx="14" fill="#EDEFF7"/>
    <path d="M865 357L871 351L877 357L871 363L865 357Z" fill="#4A4D65"/>

    <rect x="418" y="386" width="486" height="46" rx="8" fill="#FFFFFF"/>
    <text x="424" y="414" fill="#4A4D65" font-family="Helvetica Neue, Arial, sans-serif" font-size="13">postgres-password</text>
    <text x="570" y="414" fill="#4A4D65" font-family="monospace" font-size="12">database/postgres</text>
    <text x="738" y="414" fill="#4A4D65" font-family="Helvetica Neue, Arial, sans-serif" font-size="13">8</text>
    <text x="812" y="414" fill="#4A4D65" font-family="Helvetica Neue, Arial, sans-serif" font-size="12">Apr 16, 2026</text>
    <rect x="856" y="395" width="28" height="28" rx="14" fill="#EDEFF7"/>
    <path d="M865 409L871 403L877 409L871 415L865 409Z" fill="#4A4D65"/>

    <rect x="418" y="438" width="486" height="46" rx="8" fill="#FFFFFF"/>
    <text x="424" y="466" fill="#4A4D65" font-family="Helvetica Neue, Arial, sans-serif" font-size="13">signing-jwks</text>
    <text x="570" y="466" fill="#4A4D65" font-family="monospace" font-size="12">auth/jwks</text>
    <text x="738" y="466" fill="#4A4D65" font-family="Helvetica Neue, Arial, sans-serif" font-size="13">5</text>
    <text x="812" y="466" fill="#4A4D65" font-family="Helvetica Neue, Arial, sans-serif" font-size="12">Apr 15, 2026</text>
    <rect x="856" y="447" width="28" height="28" rx="14" fill="#EDEFF7"/>
    <path d="M865 461L871 455L877 461L871 467L865 461Z" fill="#4A4D65"/>
  </g>

  <path d="M230 580H868L904 598H194L230 580Z" fill="#2E3154"/>
  <rect x="432" y="598" width="234" height="34" rx="17" fill="#D6D2C8"/>
  <rect x="452" y="603" width="194" height="18" rx="9" fill="#C5C0B7"/>
</svg>
